<?xml version="1.0" encoding="UTF-8"?>
<svg id="Layer_5" data-name="Layer 5" xmlns="http://www.w3.org/2000/svg" viewBox="0 0 1024 1024">
  <defs>
    <style>
      .cls-1 {
        letter-spacing: -.15em;
      }

      .cls-2 {
        fill: #02a9ff;
        fill-rule: evenodd;
      }

      .cls-3 {
        letter-spacing: -.16em;
      }

      .cls-4 {
        letter-spacing: -.02em;
      }

      .cls-5 {
        font-family: KozGoPr6N-Regular-90ms-RKSJ-H, 'Kozuka Gothic Pr6N';
        font-size: 106.68px;
      }

      .cls-5, .cls-6 {
        fill: #fefefe;
      }

      .cls-7 {
        letter-spacing: -.08em;
      }

      .cls-8 {
        fill: #152232;
      }

      .cls-9 {
        letter-spacing: -.02em;
      }

      .cls-10 {
        letter-spacing: -.07em;
      }
    </style>
  </defs>
  <rect class="cls-8" y=".89" width="1024" height="1024"/>
  <g>
    <g>
      <path class="cls-6" d="M956.64,452.32c-5.58-42.66-150.94-64.16-193.62-72.15-32.35-5.11-74.66-12.4-108.01-17.36-42.31-5.26-96.68-8.68-134.9-9.39.21.52.41,1.06.57,1.6,44.35,5.15,90.04,9.6,133.77,15.16,63.42,10.3,129.58,21.09,191.4,36.76,24,6.29,48.41,13.66,71.12,24.01,8.04,3.7,17.12,7.8,21.86,15.5,6.89,11.48.85,22.25-8.68,29.87-7.5,6.3-16.43,11.44-25.31,15.69-13.29,6.38-26.35,10.33-39.94,14.83-7.52,2.45-15.06,4.85-22.68,6.93-3.94,1.06-7.91,2.08-11.91,2.9-5.87,1.21-11.57,1.29-17.24,2.51-5.3,1.1-9.04,5.13-7.21,10.76,1.32,4.13,4.62,8.21,9.04,5.65,2.62-1.28,5.57-4.34,9.44-6.37,2.05-1.08,4.35-1.89,6.71-2.62,11.87-3.55,24.31-6.31,36.21-9.5,9.13-2.45,18.03-5.76,26.9-9.02,14.91-5.46,29.93-11.35,43-20.6l.1-.07c11.51-7.87,21-20.83,19.39-35.1Z"/>
      <path class="cls-2" d="M434.86,137.89l-204.66,582.5h159.01l34.63-100.76h173.17l33.85,100.76h158.22l-203.88-582.5h-150.35ZM460.05,490.54l49.59-161.37,54.31,161.37h-103.9Z"/>
      <g>
        <path class="cls-6" d="M730.41,532.51c2.22,2.5,2.11,6.37-.29,8.84-2.31,2.44-5.78,3.04-9.01,3.39-4.9.49-10.04.32-15.26.73-200.99,20.71-406.52,17.13-603.06-33.58-9.66-2.59-19.29-5.3-28.72-8.62-3.2-1.18-5.7-2.37-6.54-3.14-.19-.17-.35-.35-.35-.57-.13-.97,5.66-.17,7.41.17,207.62,43.91,422.12,58.99,632.64,29.96,7.39-.7,17.72-3.21,23.14,2.76l.05.06Z"/>
        <path class="cls-6" d="M828.71,602.36c-20.89,16.56-44.86,25.08-71.04,25.15l-83.15.24-.03-200.16,83.78.25c25.9.08,49.7,8.84,69.59,24.45,46.39,38.72,47.17,110.26.86,150.06ZM801.03,526.72c-.42-24.75-18.06-43.52-41.84-45.52-8.11-.68-15.86-.58-25.06-.53v93.78c10.95.25,20.72.74,30.45-1.14,22.16-4.28,36.85-23.42,36.45-46.59Z"/>
      </g>
    </g>
    <text class="cls-5" transform="translate(214.13 851.72)"><tspan class="cls-10" x="0" y="0">ア</tspan><tspan class="cls-9" x="99.22" y="0">ニ</tspan><tspan class="cls-7" x="203.77" y="0">デ</tspan><tspan class="cls-3" x="301.92" y="0">ッ</tspan><tspan class="cls-1" x="391.53" y="0">ク</tspan><tspan class="cls-4" x="482.21" y="0">ス</tspan></text>
  </g>
</svg>